# Blender v2.66 (sub 6) OBJ File: 'room1.blend'
# www.blender.org
mtllib world.mtl
o Plane
v 10.000000 -0.067570 15.000001
v -10.000000 -0.067570 16.000000
v 21.000000 -0.067570 0.000000
v -20.000000 -0.067570 3.000000
v -14.000000 -0.067570 -14.000000
v -1.000000 -0.067570 -21.000000
v 18.000000 -0.067570 -16.000000
v 10.000000 0.932430 14.000000
v -10.000000 0.932430 15.000001
v 21.000000 0.932430 0.000000
v -20.000000 0.932430 3.000000
v -14.000000 0.932430 -14.000000
v -1.000000 0.932430 -21.000000
v 17.000000 0.932430 -16.000000
v 11.000000 1.932430 16.000000
v -11.000000 1.932430 17.000000
v 23.000002 1.932430 0.000000
v -22.000000 1.932430 3.000000
v -16.000000 1.932430 -15.000001
v -1.000000 1.932430 -22.000000
v 19.000000 1.932430 -17.000000
v 11.000000 11.932430 16.000000
v -11.000000 11.932430 17.000000
v 23.000002 11.932430 0.000000
v -22.000000 11.932430 3.000000
v -16.000000 11.932430 -15.000001
v -1.000000 11.932430 -22.000000
v 19.000000 11.932430 -17.000000
v 10.000000 12.932430 14.000000
v -10.000000 12.932430 15.000001
v 21.000000 12.932430 0.000000
v -19.000000 12.932430 3.000000
v -14.000000 12.932430 -14.000000
v -1.000000 12.932430 -21.000000
v 17.000000 12.932430 -16.000000
v 9.000000 14.932430 13.000000
v -9.000000 14.932430 14.000000
v 19.000000 14.932430 0.000000
v -18.000000 14.932430 2.000000
v -13.000000 14.932430 -13.000000
v -1.000000 14.932430 -19.000000
v 16.000000 14.932430 -15.000001
v 0.000000 -0.067570 16.000000
v -18.000000 -0.067570 -6.000000
v 16.000000 -0.067570 8.000000
v -16.000000 -0.067570 10.000000
v -8.000000 -0.067570 -18.000000
v 9.000000 -0.067570 -19.000000
v 0.000000 0.932430 16.000000
v 20.000000 -0.067570 -8.000000
v -18.000000 0.932430 -6.000000
v 17.000000 0.932430 8.000000
v -16.000000 0.932430 10.000000
v -8.000000 0.932430 -18.000000
v 9.000000 0.932430 -19.000000
v 20.000000 0.932430 -8.000000
v -20.000000 0.932430 3.000000
v -10.000000 0.932430 15.000001
v 17.000000 0.932430 -16.000000
v -1.000000 0.932430 -21.000000
v 10.000000 0.932430 14.000000
v 21.000000 0.932430 0.000000
v -14.000000 0.932430 -14.000000
v 0.000000 1.932430 17.000000
v -19.000000 1.932430 -6.000000
v 18.000000 1.932430 9.000000
v -17.000000 1.932430 11.000000
v -9.000000 1.932430 -19.000000
v 9.000000 1.932430 -20.000000
v 22.000000 1.932430 -9.000000
v -15.000001 0.932430 -14.000000
v -21.000000 0.932430 3.000000
v -10.000000 0.932430 16.000000
v 18.000000 0.932430 -16.000000
v -1.000000 0.932430 -22.000000
v 11.000000 0.932430 15.000001
v 22.000000 0.932430 0.000000
v 0.000000 11.932430 17.000000
v -19.000000 11.932430 -6.000000
v 18.000000 11.932430 9.000000
v -17.000000 11.932430 11.000000
v -9.000000 11.932430 -19.000000
v 9.000000 11.932430 -20.000000
v 22.000000 11.932430 -9.000000
v -1.000000 6.932430 -22.000000
v -16.000000 6.932430 -15.000001
v 23.000002 6.932430 0.000000
v 19.000000 6.932430 -17.000000
v -22.000000 6.932430 3.000000
v -11.000000 6.932430 17.000000
v 11.000000 6.932430 16.000000
v 0.000000 12.932430 16.000000
v -17.000000 12.932430 -6.000000
v 16.000000 12.932430 7.000000
v -15.000001 12.932430 10.000000
v -8.000000 12.932430 -18.000000
v 9.000000 12.932430 -19.000000
v 20.000000 12.932430 -8.000000
v 11.000000 12.932430 15.000001
v 22.000000 12.932430 0.000000
v -1.000000 12.932430 -21.000000
v -15.000001 12.932430 -14.000000
v 18.000000 12.932430 -16.000000
v -21.000000 12.932430 3.000000
v -10.000000 12.932430 16.000000
v 0.000000 14.932430 14.000000
v -16.000000 14.932430 -5.000000
v 15.000001 14.932430 7.000000
v -14.000000 14.932430 8.000000
v -7.000000 14.932430 -16.000000
v 8.000000 14.932430 -17.000000
v 18.000000 14.932430 -8.000000
v 16.000000 13.932429 -15.000001
v -1.000000 13.932429 -20.000000
v -9.000000 13.932429 14.000000
v 10.000000 13.932429 13.000000
v 20.000000 13.932429 0.000000
v -13.000000 13.932429 -13.000000
v -18.000000 13.932429 3.000000
v -16.000000 0.932430 10.000000
v 9.000000 0.932430 -19.000000
v 0.000000 0.932430 16.000000
v 20.000000 0.932430 -8.000000
v 16.000000 0.932430 8.000000
v -8.000000 0.932430 -18.000000
v -18.000000 0.932430 -6.000000
v -19.000000 0.932430 -6.000000
v -16.000000 0.932430 10.000000
v 9.000000 0.932430 -20.000000
v 17.000000 0.932430 8.000000
v -8.000000 0.932430 -19.000000
v 0.000000 0.932430 17.000000
v 21.000000 0.932430 -9.000000
v -9.000000 6.932430 -19.000000
v 22.000000 6.932430 -9.000000
v -19.000000 6.932430 -6.000000
v -17.000000 6.932430 11.000000
v 9.000000 6.932430 -21.000000
v 0.000000 6.932430 18.000000
v 18.000000 6.932430 9.000000
v 17.000000 12.932430 8.000000
v -8.000000 12.932430 -19.000000
v 21.000000 12.932430 -8.000000
v -18.000000 12.932430 -6.000000
v -16.000000 12.932430 10.000000
v 9.000000 12.932430 -20.000000
v 0.000000 12.932430 17.000000
v 8.000000 13.932429 -18.000000
v 0.000000 13.932429 15.000001
v 15.000001 13.932429 7.000000
v -7.000000 13.932429 -17.000000
v 19.000000 13.932429 -8.000000
v -17.000000 13.932429 -5.000000
v -15.000001 13.932429 9.000000
v -5.000000 -0.067570 16.000000
v -16.000000 -0.067570 -10.000000
v 19.000000 -0.067570 4.000000
v -13.000000 -0.067570 13.000000
v -4.000000 -0.067570 -20.000000
v 14.000000 -0.067570 -18.000000
v 21.000000 -0.067570 -4.000000
v -4.000000 14.932430 14.000000
v -14.000000 14.932430 -9.000000
v 17.000000 14.932430 3.000000
v -11.000000 14.932430 11.000000
v -4.000000 14.932430 -18.000000
v 12.000001 14.932430 -16.000000
v 19.000000 14.932430 -4.000000
v 6.000000 -0.067570 15.000001
v -19.000000 -0.067570 -1.000000
v 14.000000 -0.067570 11.000000
v -18.000000 -0.067570 6.000000
v -11.000000 -0.067570 -16.000000
v 4.000000 -0.067570 -20.000000
v 19.000000 -0.067570 -12.000001
v 5.000000 14.932430 14.000000
v -17.000000 14.932430 -1.000000
v 12.000001 14.932430 10.000000
v -16.000000 14.932430 5.000000
v -10.000000 14.932430 -15.000001
v 3.000000 14.932430 -18.000000
v 17.000000 14.932430 -11.000000
vn -0.000000 1.000000 0.000000
vn 0.000000 0.000000 0.000000
vn 0.000000 -1.000000 0.000000
vn 0.577350 -0.577350 -0.577350
vn -0.196116 0.000000 0.980581
vn 0.000000 -0.707107 -0.707106
vn -0.696311 -0.696311 0.174078
vn -0.894427 0.000000 -0.447214
vn 0.554700 0.000000 0.832050
vn 0.970142 0.000000 0.242536
vn 0.496139 0.000000 0.868243
vn 0.351123 0.000000 0.936329
vn -0.936329 0.000000 0.351123
vn -0.993884 0.000000 0.110432
vn 0.948683 0.000000 0.316228
vn 0.707107 0.000000 -0.707107
vn 0.847998 0.000000 -0.529999
vn -0.097590 -0.195180 0.975900
vn -0.282216 0.188144 0.940721
vn -0.178885 0.000000 -0.983870
vn 0.000000 0.196116 -0.980581
vn -0.874157 0.000000 -0.485643
vn -0.707107 0.000000 -0.707107
vn -0.408248 -0.816497 -0.408248
vn 0.331295 -0.331295 0.883452
vn -0.704934 -0.704935 0.078326
vn 0.588349 -0.784464 0.196116
vn 0.646762 -0.646762 -0.404226
vn -0.287348 0.000000 0.957826
vn 0.000000 -0.000000 -1.000000
vn -0.174078 -0.696310 0.696311
vn -0.140028 -0.700140 0.700140
vn -0.215387 -0.789754 0.574366
vn -0.000000 -0.707107 -0.707107
vn -0.140028 -0.700140 -0.700140
vn 0.067115 -0.738272 -0.671155
vn -0.639602 -0.639602 -0.426402
vn -0.631169 -0.631169 -0.450835
vn -0.604708 -0.604708 -0.518321
vn 0.324443 -0.811107 0.486664
vn 0.238667 -0.795558 0.556890
vn -0.688248 -0.688247 0.229416
vn -0.683486 -0.683486 0.256307
vn -0.704360 -0.704361 0.088045
vn 0.984732 0.123091 0.123091
vn 0.953998 -0.212000 0.212000
vn 0.574366 -0.789754 0.215387
vn 0.640184 0.000000 -0.768221
vn 0.408248 -0.816497 -0.408248
vn 0.777778 -0.444445 -0.444444
vn 0.597614 -0.358568 -0.717137
vn -0.156174 -0.312349 -0.937042
vn -0.196116 -0.000000 -0.980581
vn -0.696310 -0.696311 0.174078
vn -0.624695 -0.624695 -0.468521
vn -0.847998 -0.000000 -0.529999
vn 0.980581 0.000000 0.196116
vn 0.970495 0.107833 0.215666
vn -0.371391 0.000000 0.928477
vn -0.088792 -0.195341 -0.976708
vn 0.090536 0.000000 -0.995893
vn -0.636364 -0.545454 -0.545455
vn 0.198030 -0.693103 0.693103
vn -0.662085 -0.744845 0.082761
vn 0.683486 -0.683486 0.256307
vn 0.474100 -0.812743 -0.338643
vn -0.245256 -0.797081 0.551825
vn 0.067116 -0.738272 -0.671156
vn -0.155230 -0.698535 0.698536
vn -0.127000 -0.762000 0.635001
vn -0.139347 -0.766407 0.627059
vn -0.192450 -0.192450 -0.962250
vn -0.235702 0.235701 -0.942809
vn 0.078326 -0.704934 -0.704934
vn -0.813734 -0.000000 -0.581238
vn -0.534523 -0.801784 -0.267261
vn -0.646996 -0.539164 -0.539164
vn 0.229416 -0.688247 0.688248
vn 0.554700 0.000002 0.832050
vn 0.333333 -0.666667 0.666666
vn -0.919145 0.000000 0.393919
vn -0.617214 -0.771517 0.154303
vn -0.556890 -0.795557 0.238667
vn 0.693104 -0.693103 0.198030
vn 0.704360 -0.704361 0.088045
vn 0.816496 -0.408249 0.408248
vn 0.444750 -0.815374 -0.370625
vn 0.507673 -0.609208 -0.609208
vn 0.666666 -0.666667 -0.333333
vn 0.088792 -0.195341 -0.976708
vn -0.577350 -0.577350 -0.577351
vn 0.333333 -0.666666 0.666667
vn -0.696311 -0.696310 0.174078
vn 0.666667 -0.666666 0.333333
vn 0.534523 -0.801784 -0.267261
vn -0.088792 0.195342 -0.976708
vn -0.282216 -0.188144 0.940721
vn -0.351123 0.000000 0.936329
vn -0.768221 0.000000 -0.640184
vn -0.577351 -0.577350 -0.577351
vn -0.888889 -0.444444 0.111111
vn -0.707107 -0.707106 0.000000
vn 0.727607 -0.485071 -0.485071
vn -0.097590 0.195180 0.975900
vn 0.894427 0.000000 -0.447214
vn -0.408248 -0.408248 0.816497
vn -1.000000 -0.000000 -0.000000
vn -0.832050 0.000000 -0.554700
vn 0.447214 0.000000 0.894427
vn 0.894427 0.000000 0.447214
vn -0.517892 -0.805609 -0.287718
vn 0.293294 -0.806559 0.513265
vn -0.574367 -0.789754 0.215387
vn 0.688247 -0.688247 0.229416
vn -0.064150 -0.705650 -0.705651
vn 0.832050 0.000000 -0.554700
vn 0.842701 0.240772 -0.481543
vn -0.115470 -0.808290 0.577350
vn 0.070535 -0.705345 -0.705346
vn -0.992278 0.000000 0.124035
vn -0.577350 -0.577350 -0.577350
vn -0.577350 -0.577351 -0.577350
vn 0.316228 0.000000 0.948683
vn 0.381000 -0.254000 0.889001
vn -0.646761 -0.646762 -0.404226
vn 0.502519 -0.502519 0.703526
vn -0.070535 -0.705346 0.705346
vn 0.474100 0.812743 -0.338643
vn -0.245256 0.797081 0.551825
vn -0.636364 0.545454 -0.545455
vn 0.393919 0.000000 0.919145
vn 0.099504 0.000000 -0.995037
vn -0.704934 0.704935 0.078326
vn 0.976187 0.000000 0.216930
vn 0.408248 0.816497 -0.408248
vn -0.646761 0.646762 -0.404226
vn 0.502519 0.502519 0.703526
vn -0.556890 0.795557 0.238667
vn 0.588349 0.784464 0.196116
vn 0.646762 0.646762 -0.404226
vn -0.408248 0.816497 -0.408248
vn 0.331295 0.331295 0.883452
vn 0.000000 0.707107 -0.707107
vn -0.704934 0.704934 0.078326
vn 0.688247 0.688247 0.229416
vn -0.517892 0.805609 -0.287718
vn 0.293294 0.806559 0.513265
vn -0.064150 0.705650 -0.705651
vn -0.683486 0.683486 0.256307
usemtl Material.001
s off
f 3//1 161//1 157//1
f 120//2 57//2 11//2
f 121//2 59//2 14//2
f 122//2 58//2 9//2
f 123//2 62//2 10//2
f 124//2 61//2 8//2
f 125//2 60//2 13//2
f 126//2 63//2 12//2
f 141//3 99//3 29//3
f 142//2 101//2 34//2
f 143//3 100//3 31//3
f 144//3 102//3 93//3
f 145//3 104//3 32//3
f 146//3 103//3 97//3
f 147//3 105//3 92//3
f 38//3 164//3 168//3
f 58//2 120//2 53//2
f 2//4 158//4 58//4
f 60//2 121//2 55//2
f 6//5 174//5 60//5
f 61//2 122//2 49//2
f 1//6 169//6 61//6
f 59//2 123//2 56//2
f 7//7 175//7 59//7
f 62//1 124//1 52//1
f 3//8 157//8 62//8
f 63//2 125//2 54//2
f 5//9 173//9 63//9
f 57//2 126//2 51//2
f 4//10 170//10 57//10
f 11//1 51//1 127//1
f 51//1 12//1 71//1
f 9//2 53//2 128//2
f 53//2 11//2 128//2
f 13//1 55//1 129//1
f 55//1 14//1 74//1
f 10//2 52//2 130//2
f 52//1 8//1 76//1
f 12//1 54//1 131//1
f 54//1 13//1 131//1
f 8//1 49//1 132//1
f 49//1 9//1 73//1
f 14//1 56//1 133//1
f 56//1 10//1 77//1
f 86//11 134//11 82//11
f 68//12 20//12 85//12
f 88//13 135//13 28//13
f 70//14 17//14 135//14
f 89//15 136//15 79//15
f 65//15 19//15 86//15
f 90//16 137//16 81//16
f 67//17 18//17 89//17
f 85//18 138//18 83//18
f 69//19 21//19 138//19
f 91//20 139//20 22//20
f 64//21 16//21 139//21
f 87//22 140//22 24//22
f 66//23 15//23 140//23
f 100//3 141//3 31//3
f 80//24 22//24 141//24
f 102//3 142//3 33//3
f 82//25 27//25 142//25
f 103//3 143//3 98//3
f 84//26 24//26 100//26
f 104//3 144//3 32//3
f 79//27 26//27 102//27
f 105//3 145//3 95//3
f 81//28 25//28 104//28
f 83//29 28//29 146//29
f 99//3 147//3 29//3
f 78//30 23//30 147//30
f 41//31 114//31 181//31
f 34//32 97//32 114//32
f 97//33 35//33 148//33
f 149//34 106//34 176//34
f 29//35 92//35 116//35
f 92//36 30//36 115//36
f 38//37 117//37 164//37
f 31//38 94//38 150//38
f 94//39 29//39 150//39
f 118//9 151//9 40//9
f 33//40 96//40 118//40
f 96//41 34//41 151//41
f 152//42 112//42 182//42
f 35//43 98//43 152//43
f 98//44 31//44 152//44
f 119//45 153//45 39//45
f 32//46 93//46 153//46
f 93//47 33//47 118//47
f 115//48 154//48 37//48
f 30//49 95//49 115//49
f 95//50 32//50 154//50
f 161//1 50//1 157//1
f 50//1 175//1 157//1
f 175//1 7//1 157//1
f 7//1 160//1 157//1
f 160//1 48//1 157//1
f 48//1 174//1 157//1
f 174//1 6//1 157//1
f 6//1 159//1 157//1
f 159//1 47//1 157//1
f 47//1 173//1 157//1
f 173//1 5//1 157//1
f 5//1 156//1 157//1
f 156//1 44//1 157//1
f 44//1 170//1 157//1
f 170//1 4//1 157//1
f 4//1 172//1 157//1
f 172//1 46//1 157//1
f 46//1 158//1 157//1
f 158//1 2//1 157//1
f 2//1 155//1 157//1
f 155//1 43//1 157//1
f 43//1 169//1 157//1
f 169//1 1//1 157//1
f 1//1 171//1 45//1
f 157//1 1//1 45//1
f 53//2 120//2 11//2
f 55//2 121//2 14//2
f 49//2 122//2 9//2
f 56//2 123//2 10//2
f 52//1 124//1 8//1
f 54//2 125//2 13//2
f 51//2 126//2 12//2
f 94//3 141//3 29//3
f 96//3 142//3 34//3
f 98//3 143//3 31//3
f 102//3 33//3 93//3
f 95//3 145//3 32//3
f 103//3 35//3 97//3
f 105//3 30//3 92//3
f 164//3 108//3 168//3
f 108//3 178//3 168//3
f 178//3 36//3 168//3
f 36//3 176//3 168//3
f 176//3 106//3 168//3
f 106//3 162//3 168//3
f 162//3 37//3 168//3
f 37//3 165//3 168//3
f 165//3 109//3 168//3
f 109//3 179//3 168//3
f 179//3 39//3 168//3
f 39//3 177//3 168//3
f 177//3 107//3 168//3
f 107//3 163//3 168//3
f 163//3 40//3 168//3
f 40//3 180//3 168//3
f 180//3 110//3 168//3
f 110//3 166//3 168//3
f 166//3 41//3 168//3
f 41//3 181//3 168//3
f 181//3 111//3 168//3
f 111//3 167//3 168//3
f 167//3 42//3 168//3
f 42//1 182//1 168//1
f 182//3 112//3 168//3
f 9//2 58//2 53//2
f 158//16 46//16 120//16
f 58//51 158//51 120//51
f 13//2 60//2 55//2
f 174//5 48//5 121//5
f 60//5 174//5 121//5
f 8//2 61//2 49//2
f 169//52 43//52 61//52
f 43//53 122//53 61//53
f 14//2 59//2 56//2
f 175//54 50//54 59//54
f 50//13 123//13 59//13
f 10//2 62//2 52//2
f 157//55 45//55 62//55
f 45//56 124//56 62//56
f 12//2 63//2 54//2
f 173//9 47//9 63//9
f 47//9 125//9 63//9
f 11//2 57//2 51//2
f 170//57 44//57 126//57
f 57//58 170//58 126//58
f 72//1 11//1 127//1
f 127//1 51//1 71//1
f 73//1 9//1 128//1
f 11//1 72//1 128//1
f 75//1 13//1 129//1
f 129//1 55//1 74//1
f 77//1 10//1 130//1
f 130//2 52//2 76//2
f 71//1 12//1 131//1
f 13//1 75//1 131//1
f 76//1 8//1 132//1
f 132//1 49//1 73//1
f 74//1 14//1 133//1
f 133//1 56//1 77//1
f 26//11 86//11 82//11
f 134//12 68//12 85//12
f 135//13 84//13 28//13
f 17//14 87//14 135//14
f 25//15 89//15 79//15
f 136//15 65//15 86//15
f 23//16 90//16 81//16
f 137//17 67//17 89//17
f 27//5 85//5 83//5
f 21//59 88//59 138//59
f 139//60 78//60 22//60
f 16//61 90//61 139//61
f 140//22 80//22 24//22
f 15//23 91//23 140//23
f 141//3 94//3 31//3
f 22//62 99//62 141//62
f 142//3 96//3 33//3
f 27//63 101//63 142//63
f 35//3 103//3 98//3
f 143//64 84//64 100//64
f 144//3 93//3 32//3
f 144//65 79//65 102//65
f 30//3 105//3 95//3
f 145//66 81//66 104//66
f 28//67 103//67 146//67
f 147//3 92//3 29//3
f 23//68 105//68 147//68
f 114//69 148//69 111//69
f 181//70 114//70 111//70
f 97//71 148//71 114//71
f 35//33 113//33 148//33
f 116//72 149//72 36//72
f 149//73 176//73 36//73
f 92//35 149//35 116//35
f 149//74 92//74 115//74
f 117//75 150//75 108//75
f 164//76 117//76 108//76
f 117//38 31//38 150//38
f 29//77 116//77 150//77
f 151//78 110//78 180//78
f 40//79 151//79 180//79
f 96//40 151//40 118//40
f 34//80 114//80 151//80
f 113//81 152//81 42//81
f 152//82 182//82 42//82
f 113//83 35//83 152//83
f 31//44 117//44 152//44
f 153//84 107//84 39//84
f 107//3 177//3 39//3
f 119//85 32//85 153//85
f 153//86 93//86 118//86
f 154//87 109//87 37//87
f 109//3 165//3 37//3
f 95//88 154//88 115//88
f 32//89 119//89 154//89
usemtl Material.002
f 134//12 85//12 27//12
f 135//14 87//14 84//14
f 136//15 86//15 26//15
f 137//17 89//17 25//17
f 138//59 88//59 28//59
f 139//90 90//90 78//90
f 140//23 91//23 80//23
f 111//31 148//31 167//31
f 149//74 115//74 106//74
f 116//91 36//91 178//91
f 151//92 114//92 110//92
f 112//93 152//93 168//93
f 153//94 118//94 107//94
f 154//95 119//95 109//95
f 19//11 68//11 134//11
f 21//13 70//13 88//13
f 18//15 65//15 136//15
f 16//16 67//16 137//16
f 20//5 69//5 85//5
f 15//96 64//96 139//96
f 17//22 66//22 87//22
f 82//12 134//12 27//12
f 87//14 24//14 84//14
f 79//15 136//15 26//15
f 81//17 137//17 25//17
f 83//97 138//97 28//97
f 90//30 23//30 78//30
f 91//23 22//23 80//23
f 148//98 113//98 42//98
f 167//31 148//31 42//31
f 115//30 37//30 106//30
f 37//2 162//2 106//2
f 150//99 116//99 108//99
f 116//100 178//100 108//100
f 114//78 41//78 166//78
f 110//9 114//9 166//9
f 152//101 117//101 168//101
f 117//102 38//102 168//102
f 118//10 40//10 163//10
f 107//94 118//94 163//94
f 119//103 39//103 109//103
f 39//2 179//2 109//2
f 86//11 19//11 134//11
f 70//13 135//13 88//13
f 89//15 18//15 136//15
f 90//16 16//16 137//16
f 69//104 138//104 85//104
f 91//20 15//20 139//20
f 66//22 140//22 87//22
usemtl Material.003
f 46//105 172//105 120//105
f 160//106 7//106 59//106
f 43//30 155//30 122//30
f 161//107 3//107 62//107
f 45//108 171//108 124//108
f 47//109 159//109 125//109
f 44//110 156//110 126//110
f 24//111 80//111 141//111
f 26//112 82//112 102//112
f 28//113 84//113 143//113
f 25//114 79//114 104//114
f 23//49 81//49 145//49
f 101//2 146//2 34//2
f 27//5 83//5 146//5
f 22//115 78//115 99//115
f 172//116 4//116 57//116
f 120//117 172//117 57//117
f 48//118 160//118 59//118
f 121//98 48//98 59//98
f 155//30 2//30 122//30
f 2//119 58//119 122//119
f 50//7 161//7 62//7
f 123//120 50//120 62//120
f 171//121 1//121 124//121
f 1//122 61//122 124//122
f 159//123 6//123 60//123
f 125//124 159//124 60//124
f 156//110 5//110 63//110
f 126//110 156//110 63//110
f 100//125 24//125 141//125
f 82//126 142//126 102//126
f 103//113 28//113 143//113
f 79//114 144//114 104//114
f 105//49 23//49 145//49
f 146//3 97//3 34//3
f 101//127 27//127 146//127
f 78//20 147//20 99//20
usemtl Material.004
f 127//110 71//110 65//110
f 128//128 72//128 67//128
f 129//129 74//129 21//129
f 130//130 76//130 15//130
f 131//131 75//131 20//131
f 132//132 73//132 64//132
f 133//133 77//133 17//133
f 72//134 127//134 65//134
f 73//135 128//135 67//135
f 75//5 129//5 20//5
f 77//136 130//136 17//136
f 71//137 131//137 68//137
f 76//20 132//20 64//20
f 74//138 133//138 21//138
f 71//139 19//139 65//139
f 72//140 18//140 67//140
f 69//29 129//29 21//29
f 66//141 130//141 15//141
f 68//142 131//142 20//142
f 73//143 16//143 64//143
f 70//144 133//144 17//144
f 18//145 72//145 65//145
f 16//135 73//135 67//135
f 129//5 69//5 20//5
f 130//146 66//146 17//146
f 19//147 71//147 68//147
f 15//148 76//148 64//148
f 133//149 70//149 21//149
